<svg width="20" height="21" viewBox="0 0 20 21" fill="none" xmlns="http://www.w3.org/2000/svg">
<g clip-path="url(#clip0)">
<path fill-rule="evenodd" clip-rule="evenodd" d="M10 0.949951C4.48 0.949951 0 5.42995 0 10.95C0 16.47 4.48 20.95 10 20.95H15V18.95H10C5.66 18.95 2 15.29 2 10.95C2 6.60995 5.66 2.94995 10 2.94995C14.34 2.94995 18 6.60995 18 10.95V12.38C18 13.17 17.29 13.95 16.5 13.95C15.71 13.95 15 13.17 15 12.38V10.95C15 8.18995 12.76 5.94995 10 5.94995C7.24 5.94995 5 8.18995 5 10.95C5 13.71 7.24 15.95 10 15.95C11.38 15.95 12.64 15.39 13.54 14.48C14.19 15.37 15.31 15.95 16.5 15.95C18.47 15.95 20 14.35 20 12.38V10.95C20 5.42995 15.52 0.949951 10 0.949951ZM10 13.95C8.34 13.95 7 12.61 7 10.95C7 9.28995 8.34 7.94995 10 7.94995C11.66 7.94995 13 9.28995 13 10.95C13 12.61 11.66 13.95 10 13.95Z" fill="white"/>
</g>
<defs>
<clipPath id="clip0">
<rect width="20" height="21" fill="white"/>
</clipPath>
</defs>
</svg>
