<svg width="16" height="21" viewBox="0 0 16 21" fill="none" xmlns="http://www.w3.org/2000/svg">
<path fill-rule="evenodd" clip-rule="evenodd" d="M8 0C3.57714 0 0 3.37596 0 7.55008C0 12.0478 5.05143 18.2496 7.13143 20.6117C7.58857 21.1294 8.42286 21.1294 8.88 20.6117C10.9486 18.2496 16 12.0478 16 7.55008C16 3.37596 12.4229 0 8 0ZM8 10.2465C6.42286 10.2465 5.14286 9.03852 5.14286 7.55008C5.14286 6.06163 6.42286 4.85362 8 4.85362C9.57714 4.85362 10.8571 6.06163 10.8571 7.55008C10.8571 9.03852 9.57714 10.2465 8 10.2465Z" fill="#490404"/>
</svg>
